<svg xmlns="http://www.w3.org/2000/svg" width="24" height="14" viewBox="0 0 24 14">
    <path  fill-rule="nonzero" d="M10.41 6.238c.478-.23.838-.488 1.086-.765.44-.5.657-1.162.657-1.983 0-.799-.217-1.482-.652-2.055C10.777.502 9.551.025 7.817 0H.947v13.46h6.405c.722 0 1.39-.06 2.009-.182a4.033 4.033 0 0 0 1.606-.676c.402-.285.739-.64 1.006-1.058a3.774 3.774 0 0 0 .634-2.146c0-.773-.185-1.431-.554-1.972-.372-.541-.918-.937-1.643-1.188zm-6.629-3.9h3.094c.68 0 1.24.07 1.68.21.51.202.764.615.764 1.244 0 .565-.194.96-.578 1.182-.387.222-.888.333-1.504.333H3.781v-2.97zm4.893 8.549c-.342.159-.824.237-1.44.237H3.78v-3.59h3.5c.61.005 1.084.082 1.423.227.604.262.904.743.904 1.445 0 .828-.31 1.385-.934 1.68zM15.646.627h6.091v1.676h-6.09V.628zm8.207 6.612c.075.456.104 1.117.092 1.977h-7.658c.046.997.409 1.698 1.101 2.099.42.25.923.375 1.517.375.624 0 1.133-.152 1.524-.455a2.19 2.19 0 0 0 .566-.685h2.807c-.075.59-.416 1.19-1.018 1.8-.942.966-2.26 1.45-3.955 1.45-1.4 0-2.634-.407-3.702-1.224-1.072-.816-1.606-2.145-1.606-3.984 0-1.725.483-3.049 1.448-3.969.967-.918 2.218-1.38 3.758-1.38.917-.001 1.74.155 2.473.466.734.31 1.338.802 1.814 1.473.434.592.713 1.278.84 2.057zm-7.497.259h4.737c-.05-.692-.296-1.215-.732-1.575-.44-.357-.983-.535-1.631-.535-.703 0-1.252.191-1.64.57-.389.379-.633.892-.734 1.54z"/>
</svg>
