<svg xmlns="http://www.w3.org/2000/svg" width="21" height="20" viewBox="0 0 21 20">
    <path fill="#FFF" fill-rule="nonzero" d="M19.291 4.98a9.958 9.958 0 0 0-3.64-3.639C14.12.447 12.448 0 10.633 0c-1.814 0-3.487.447-5.02 1.341a9.955 9.955 0 0 0-3.639 3.64C1.08 6.512.632 8.185.632 10s.447 3.487 1.341 5.02a9.958 9.958 0 0 0 3.64 3.639C7.144 19.553 8.817 20 10.632 20c1.813 0 3.487-.447 5.019-1.341a9.955 9.955 0 0 0 3.639-3.64c.894-1.532 1.34-3.205 1.34-5.019.001-1.814-.446-3.488-1.34-5.02zm-8.659-3.522c2.153 0 4.032.712 5.638 2.136l-.163.227a5.648 5.648 0 0 1-.488.528c-.26.26-.545.508-.853.742-.308.234-.727.501-1.256.8-.53.3-1.094.563-1.693.789-.998-1.84-2.066-3.499-3.203-4.974a8.614 8.614 0 0 1 2.018-.248zM3.94 4.7A8.426 8.426 0 0 1 6.986 2.28C8.063 3.71 9.122 5.352 10.163 7.2a30.89 30.89 0 0 1-7.89 1.042A8.442 8.442 0 0 1 3.94 4.7zm-1.277 8.38A8.378 8.378 0 0 1 2.09 10c0-.122.005-.213.013-.273 3.143 0 6.064-.404 8.764-1.211.277.538.507 1.02.69 1.445a1.053 1.053 0 0 1-.17.058 8.105 8.105 0 0 1-.17.046l-.48.17c-.33.12-.763.33-1.297.624-.533.296-1.1.647-1.699 1.055-.599.408-1.217.949-1.855 1.622a10.914 10.914 0 0 0-1.608 2.167 8.551 8.551 0 0 1-1.615-2.623zm7.97 5.462c-2.032 0-3.846-.651-5.444-1.953l.196.143c.303-.669.75-1.311 1.34-1.927.591-.616 1.16-1.114 1.707-1.491a16.809 16.809 0 0 1 1.783-1.068c.643-.334 1.08-.547 1.316-.638.234-.091.42-.163.56-.215l.025-.013h.027c.85 2.23 1.458 4.392 1.822 6.484a8.538 8.538 0 0 1-3.333.678zm7.187-3.926a8.533 8.533 0 0 1-2.409 2.467 36.687 36.687 0 0 0-1.667-6.106c1.728-.27 3.503-.144 5.326.377a8.427 8.427 0 0 1-1.25 3.262zm1.224-4.733a10.603 10.603 0 0 0-.326-.059l-.475-.078c-.187-.03-.395-.058-.625-.084a21.465 21.465 0 0 0-2.468-.143c-.304 0-.623.008-.957.025-.334.018-.657.048-.97.092a1.542 1.542 0 0 1-.097-.215 4.506 4.506 0 0 1-.085-.228 86.458 86.458 0 0 0-.573-1.237c.599-.243 1.17-.523 1.713-.84.542-.317.976-.599 1.301-.846.326-.248.634-.51.925-.788.29-.278.48-.471.566-.58.087-.108.17-.215.248-.319l.013-.013c1.267 1.545 1.914 3.325 1.94 5.339l-.13-.026z"/>
</svg>
