<svg xmlns="http://www.w3.org/2000/svg" width="16" height="13" viewBox="0 0 16 13">
    <path  fill-rule="nonzero" d="M1.536 3.875A4.432 4.432 0 0 1 .49 2.844C.164 2.406 0 2 0 1.624c0-.463.123-.85.37-1.16C.618.154.97 0 1.43 0H14.57c.387 0 .722.14 1.005.42.283.28.424.616.424 1.009 0 .47-.146.92-.438 1.348a4.241 4.241 0 0 1-1.089 1.098c-2.238 1.553-3.63 2.52-4.178 2.902-.06.041-.186.132-.38.272-.193.14-.354.253-.482.34a9.43 9.43 0 0 1-.464.29 2.697 2.697 0 0 1-.514.24c-.16.054-.31.08-.446.08h-.018c-.137 0-.286-.026-.446-.08a2.694 2.694 0 0 1-.514-.24 9.263 9.263 0 0 1-.464-.29c-.128-.087-.289-.2-.482-.34l-.38-.272c-.541-.381-1.321-.924-2.339-1.63a413.742 413.742 0 0 1-1.83-1.272zm13.571.955c.34-.232.637-.49.893-.777v7.09c0 .393-.14.729-.42 1.009-.28.28-.616.42-1.009.42H1.43c-.393 0-.73-.14-1.01-.42-.28-.28-.419-.616-.419-1.01V4.054c.262.292.563.551.902.777 2.155 1.464 3.634 2.491 4.437 3.08.34.25.615.446.826.585a5.1 5.1 0 0 0 .844.429c.351.146.678.219.982.219h.019c.303 0 .63-.073.981-.22.351-.145.632-.288.844-.428.211-.14.486-.334.826-.584 1.011-.733 2.494-1.76 4.446-3.08z"/>
</svg>
