<?xml version="1.0" encoding="UTF-8"?>
<svg width="14px" height="14px" viewBox="0 0 14 14" version="1.1" xmlns="http://www.w3.org/2000/svg" xmlns:xlink="http://www.w3.org/1999/xlink">
    <!-- Generator: Sketch 53.2 (72643) - https://sketchapp.com -->
    <title>Shape</title>
    <desc>Created with Sketch.</desc>
    <g id="Page-1" stroke="none" stroke-width="1" fill="none" fill-rule="evenodd">
        <g id="Artboard" transform="translate(-307.000000, -520.000000)" fill="#D11E37" fill-rule="nonzero">
            <path d="M314,520 C310.134233,520 307,523.134233 307,527 C307,530.866207 310.134233,534 314,534 C317.866207,534 321,530.866648 321,527 C321,523.134233 317.866158,520 314,520 Z M314,532.687479 C310.858768,532.687479 308.312521,530.141232 308.312521,527 C308.312521,523.858768 310.858768,521.312521 314,521.312521 C317.141232,521.312521 319.687479,523.858768 319.687479,527 C319.687479,530.141232 317.141232,532.687479 314,532.687479 Z M314.00044,523.069924 C313.499081,523.069924 313.119733,523.331567 313.119733,523.754179 L313.119733,527.630419 C313.119733,528.053472 313.499032,528.314234 314.00044,528.314234 C314.489565,528.314234 314.881148,528.042558 314.881148,527.630419 L314.881148,523.754179 C314.881099,523.3416 314.489565,523.069924 314.00044,523.069924 Z M314.00044,529.187503 C313.518755,529.187503 313.126731,529.579527 313.126731,530.061604 C313.126731,530.542849 313.518755,530.934872 314.00044,530.934872 C314.482126,530.934872 314.873709,530.542849 314.873709,530.061604 C314.87366,529.579478 314.482126,529.187503 314.00044,529.187503 Z" id="Shape"></path>
        </g>
    </g>
</svg>