<svg xmlns="http://www.w3.org/2000/svg" width="16" height="18" viewBox="0 0 16 18">
    <path  fill-rule="nonzero" d="M7.37 8.228a.624.624 0 0 0-.882-.88l-3.297 3.296a2.907 2.907 0 0 0-.866 2.082c0 .79.304 1.52.866 2.082a2.935 2.935 0 0 0 4.163 0L14.8 7.362A4.08 4.08 0 0 0 16 4.46a4.08 4.08 0 0 0-1.2-2.902 4.109 4.109 0 0 0-5.82 0l-7.43 7.43A5.24 5.24 0 0 0 0 12.726c0 1.413.547 2.75 1.55 3.738a5.24 5.24 0 0 0 3.738 1.55c1.413 0 2.75-.547 3.738-1.55l3.297-3.297a.624.624 0 0 0-.881-.882l-3.298 3.298a4.024 4.024 0 0 1-2.856 1.185 4.024 4.024 0 0 1-2.857-1.185 4.024 4.024 0 0 1-1.185-2.857c0-1.079.425-2.097 1.185-2.857l7.43-7.43a2.864 2.864 0 0 1 4.042 0 2.864 2.864 0 0 1 0 4.042l-7.445 7.445c-.654.654-1.732.654-2.401 0a1.69 1.69 0 0 1 0-2.4l3.312-3.298z"/>
</svg>
