<svg xmlns="http://www.w3.org/2000/svg" width="18" height="17" viewBox="0 0 18 17">
    <path  fill-rule="nonzero" d="M12.572 0H4.955A4.697 4.697 0 0 0 .264 4.691v7.618A4.697 4.697 0 0 0 4.955 17h7.617a4.697 4.697 0 0 0 4.692-4.691V4.69A4.697 4.697 0 0 0 12.572 0zm3.184 12.309a3.187 3.187 0 0 1-3.184 3.183H4.955a3.187 3.187 0 0 1-3.183-3.183V4.69a3.187 3.187 0 0 1 3.183-3.183h7.617a3.187 3.187 0 0 1 3.184 3.183v7.618zm-6.992-8.19A4.385 4.385 0 0 0 4.384 8.5a4.385 4.385 0 0 0 4.38 4.38 4.385 4.385 0 0 0 4.38-4.38 4.385 4.385 0 0 0-4.38-4.38zm0 7.253A2.875 2.875 0 0 1 5.892 8.5a2.875 2.875 0 0 1 2.872-2.872A2.875 2.875 0 0 1 11.636 8.5a2.875 2.875 0 0 1-2.872 2.872zm4.564-8.531a1.11 1.11 0 0 0-1.106 1.106c0 .29.119.576.325.782.205.205.49.324.781.324.292 0 .576-.119.782-.324.206-.206.324-.492.324-.782a1.11 1.11 0 0 0-.324-.782 1.11 1.11 0 0 0-.782-.324z"/>
</svg>
