<svg xmlns="http://www.w3.org/2000/svg" width="19" height="17" viewBox="0 0 19 17">
    <path  fill-rule="nonzero" d="M18.316 10.405v6.566h-3.858v-6.126c0-1.54-.558-2.59-1.954-2.59-1.067 0-1.7.708-1.98 1.393-.102.245-.128.586-.128.928v6.395h-3.86s.053-10.376 0-11.45h3.86v1.622l-.026.037h.026v-.037c.512-.779 1.428-1.892 3.477-1.892 2.54 0 4.443 1.637 4.443 5.154zM2.5 0C1.18 0 .316.854.316 1.978c0 1.1.839 1.98 2.133 1.98h.025c1.346 0 2.183-.88 2.183-1.98C4.632.854 3.82 0 2.5 0zM.545 16.971h3.858V5.521H.545v11.45z"/>
</svg>
