<svg xmlns="http://www.w3.org/2000/svg" width="16" height="16" viewBox="0 0 16 16">
    <path fill="#FFF" fill-rule="nonzero" d="M15.332 9.158a7.423 7.423 0 0 0-8.49-8.49A4.486 4.486 0 0 0 .668 6.842a7.422 7.422 0 0 0 8.49 8.49 4.486 4.486 0 0 0 6.174-6.174zm-3.808 2.218c-.314.452-.775.805-1.378 1.06-.604.254-1.318.38-2.142.38-.988 0-1.806-.172-2.452-.521a3.177 3.177 0 0 1-1.116-1.004c-.287-.418-.433-.828-.433-1.228 0-.236.09-.44.265-.608a.943.943 0 0 1 .674-.253c.22 0 .41.067.563.198.153.131.281.322.386.574.126.292.262.537.408.731.144.193.347.353.61.479.26.126.607.189 1.04.189.594 0 1.073-.128 1.44-.381.368-.256.546-.567.546-.942 0-.3-.096-.537-.292-.723a1.94 1.94 0 0 0-.77-.43c-.317-.101-.744-.208-1.279-.321-.718-.157-1.319-.34-1.805-.549-.487-.21-.875-.498-1.163-.86-.288-.368-.432-.823-.432-1.363 0-.515.152-.976.456-1.376.303-.402.742-.71 1.315-.924.57-.214 1.242-.321 2.011-.321.616 0 1.148.071 1.598.213.45.142.824.33 1.124.567.297.236.516.484.655.745.138.262.208.518.208.767 0 .232-.09.442-.265.627a.876.876 0 0 1-.66.278c-.237 0-.422-.055-.55-.17-.125-.111-.256-.289-.398-.536a2.381 2.381 0 0 0-.645-.806c-.243-.189-.645-.287-1.204-.286-.517 0-.93.106-1.242.312-.315.21-.465.454-.466.739.001.179.052.33.156.458.105.13.251.243.439.338.188.097.379.172.571.225.195.055.517.135.965.24.562.122 1.072.257 1.53.405.458.148.848.327 1.17.54.325.212.58.483.76.81.183.328.274.728.274 1.199.001.567-.157 1.077-.472 1.528z"/>
</svg>
