<svg xmlns="http://www.w3.org/2000/svg" xmlns:xlink="http://www.w3.org/1999/xlink" width="253" height="150" viewBox="0 0 253 150">
    <defs>
        <path id="a" d="M0 .006h16.795v16.761H0z"/>
        <path id="c" d="M.184.118h6.817v6.829H.184z"/>
    </defs>
    <g fill="none" fill-rule="evenodd">
        <path fill="#FEFEFE" d="M226.295 72.662c-.134 2.025-.304 4.045-.627 6.054-.268 1.673-.667 3.316-1.09 4.949-.277 1.065-.658 2.112-1.014 3.16-.43 1.261-.978 2.469-1.485 3.696-.393.952-.862 1.87-1.396 2.748-.197.324-.476.49-.897.228-.86-.535-1.75-1.024-2.628-1.528-.305-.176-.63-.286-.952-.063-.464.32-.424.889.133 1.253.659.431 1.358.8 2.038 1.199.243.143.474.309.724.438.45.234.445.546.207.931a47.408 47.408 0 0 1-5.163 6.87 48.646 48.646 0 0 1-4.859 4.69c-1.547 1.298-3.201 2.455-4.875 3.583-.603.406-.891.331-1.273-.306-.415-.692-.788-1.41-1.187-2.11-.12-.212-.264-.412-.403-.612-.247-.356-.616-.4-.951-.231-.368.186-.455.558-.259.924.452.844.93 1.674 1.397 2.51.018.032.042.062.061.094.487.842.487.97-.37 1.436a49.177 49.177 0 0 1-3.787 1.842c-1.38.604-2.81 1.066-4.225 1.559-1.22.424-2.499.682-3.757.992-2.805.69-5.672.923-8.54 1.152-.669.053-.802-.056-.812-.735-.015-.94-.004-1.882-.007-2.823-.001-.188.028-.39-.029-.561-.119-.364-.203-.823-.731-.775-.482.045-.723.388-.734.848-.024.96-.016 1.92-.018 2.88-.003 1.213-.003 1.243-1.233 1.163-2.46-.161-4.918-.384-7.335-.865a45.63 45.63 0 0 1-6.503-1.81c-1.908-.684-3.758-1.491-5.58-2.368-.051-.025-.1-.053-.149-.082-1.72-1.044-1.314-.552-.377-2.424.301-.602.693-1.159 1.043-1.737a.576.576 0 0 0 .07-.153c.097-.383.244-.802-.161-1.08-.36-.246-.894-.007-1.167.463-.526.907-1.052 1.815-1.581 2.72-.35.598-.534.646-1.115.305-2.042-1.197-3.903-2.643-5.718-4.153a43.314 43.314 0 0 1-4.785-4.685c-1.707-1.938-3.282-3.984-4.618-6.202-.395-.656-.31-.859.358-1.235.914-.514 1.817-1.048 2.721-1.58.191-.111.413-.211.445-.474.036-.3.105-.63-.184-.834-.283-.2-.626-.178-.915-.012-.993.567-1.98 1.144-2.955 1.742-.518.318-.689.303-.977-.215-1.264-2.27-2.27-4.649-3.128-7.102a47.692 47.692 0 0 1-1.538-5.458 31.1 31.1 0 0 1-.587-3.5c-.145-1.401-.422-2.788-.396-4.206a5.029 5.029 0 0 0-.024-.62c-.058-.55.157-.786.733-.773 1.072.026 2.145.006 3.218-.005.224-.002.46-.008.668-.077.314-.103.465-.363.481-.693.016-.322-.194-.46-.455-.568-.27-.111-.548-.127-.831-.128-.98 0-1.958.002-2.937-.002-.801-.003-.883-.11-.873-.932.027-2.226.407-4.41.726-6.604.24-1.658.664-3.27 1.12-4.868a42.875 42.875 0 0 1 3.042-7.735c.23-.45.473-.894.704-1.343.26-.505.562-.639 1.036-.336.808.516 1.68.91 2.495 1.409.192.118.388.22.591.318.377.183.704.167.933-.194.23-.36.081-.839-.312-1.071-1.03-.61-2.059-1.226-3.106-1.807-.412-.228-.409-.49-.2-.828 1.067-1.72 2.255-3.35 3.514-4.94 1.594-2.008 3.378-3.833 5.271-5.537 1.887-1.698 3.897-3.268 6.102-4.559.145-.084.263-.214.406-.301.465-.282.797-.18 1.063.288.527.93 1.073 1.848 1.591 2.782.108.195.262.303.423.432.197.156.372.226.614.1.262-.137.391-.33.392-.627.002-.693-.503-1.156-.783-1.718-.3-.602-.676-1.166-1.018-1.748-.241-.41-.209-.688.271-.946 1.74-.932 3.541-1.717 5.378-2.44.98-.385 1.98-.698 2.966-1.056.667-.243 1.364-.41 2.056-.576 1.917-.46 3.856-.801 5.806-1.1.952-.146 1.904-.205 2.86-.3.584 0 1.168.016 1.75-.005.493-.018.717.15.702.682-.03 1.035-.009 2.07-.002 3.106.001.282.006.57.253.775.232.194.506.308.782.174.358-.174.456-.547.464-.903.022-.96.007-1.92.008-2.88.002-.917.042-.95.958-.94 2.36.024 4.675.37 6.99.805 1.518.285 3.007.671 4.491 1.065 1.3.346 2.566.844 3.82 1.339 1.713.675 3.388 1.438 4.992 2.35.642.364.694.594.305 1.252-.506.856-.99 1.727-1.47 2.599-.155.282-.237.554.02.878.409.512.918.344 1.393-.432a60.066 60.066 0 0 0 1.48-2.59c.24-.439.484-.465.901-.207 2.713 1.682 5.21 3.648 7.517 5.84a44.896 44.896 0 0 1 5.791 6.7c.616.875 1.194 1.776 1.797 2.66.272.398.329.682-.179.993-.862.53-1.76.994-2.62 1.524-.323.199-.772.446-.544.968.175.397.467.603.955.421.782-.29 1.41-.843 2.157-1.194.3-.14.604-.29.884-.487.314-.22.593-.02.746.268.466.875.904 1.765 1.357 2.647.463.9.771 1.867 1.178 2.793.426.973.667 2.025 1.008 3.037.473 1.407.828 2.848 1.118 4.299.33 1.657.636 3.323.725 5.02.046.863.174 1.722.223 2.586.054.956-.09 1.089-1.032 1.094-.772.004-1.544.005-2.315 0a2.919 2.919 0 0 0-.833.124c-.346.1-.504.326-.474.668.028.33.204.577.545.632.276.044.561.043.843.046.809.007 1.619-.003 2.428.011.724.013.888.16.84.875m-81.915 34.74c-.93.404-1.884.807-2.88.949-.723.103-1.37.381-2.041.588-1.68.518-3.335 1.116-4.993 1.7-1.852.653-3.677 1.391-5.553 1.963-1.085.33-2.145.73-3.233 1.052-1.072.318-2.13.707-3.189 1.082-1.355.481-2.703.989-4.075 1.43-2.157.695-4.275 1.51-6.414 2.262-1.7.598-3.387 1.24-5.112 1.753-2.107.627-4.128 1.486-6.22 2.153-1.913.61-3.806 1.284-5.7 1.955-.423.15-.836.324-1.274.434-.403.1-.63-.005-.768-.418-.65-1.942-1.323-3.876-1.98-5.815-.62-1.827-1.221-3.661-1.848-5.487-.504-1.469-1.039-2.927-1.549-4.394-.35-1.007-.671-2.024-1.02-3.032-.381-1.095-.792-2.18-1.165-3.277-.532-1.564-1.04-3.136-1.562-4.703-.125-.378-.013-.57.385-.705 2.08-.7 4.151-1.426 6.223-2.15 2.605-.91 5.203-1.836 7.81-2.736 2.29-.79 4.602-1.518 6.879-2.341 1.831-.663 3.695-1.23 5.51-1.942.849-.333 1.742-.55 2.592-.901.595-.247.779-.086.98.544.292.91.634 1.804.94 2.71.405 1.205.817 2.409 1.244 3.605.48 1.342.921 2.697 1.393 4.042.64 1.826 1.245 3.665 1.875 5.495.288.834.586 1.666.905 2.488.206.528.937.884 1.492.771.665-.135 1.082-.67 1.082-1.378-.01-.752-.389-1.406-.606-2.095-.597-1.895-1.296-3.758-1.948-5.636-.634-1.83-1.263-3.66-1.888-5.493-.515-1.51-1.02-3.023-1.533-4.534-.12-.354-.28-.697-.375-1.058-.116-.446.014-.71.53-.855 1.06-.3 2.094-.695 3.14-1.052 1.08-.369 2.17-.712 3.236-1.119.73-.278 1.512-.435 2.167-.907.62-.447 1.407-.48 2.092-.787.644-.288 1.348-.444 2.024-.663.384-.125.617 0 .715.393.29 1.165.561 2.335.885 3.49.333 1.189.697 2.368 1.152 3.519.44 1.111.875 2.222 1.363 3.315a46.638 46.638 0 0 0 3.277 6.082c1.361 2.137 2.835 4.191 4.515 6.09.852.964 1.742 1.895 2.623 2.834.378.402.387.567-.103.78m-54.36 18.592c-1.538.612-3.126 1.073-4.683 1.626a797.934 797.934 0 0 1-6.75 2.365c-1.42.491-2.852.95-4.274 1.437-1.419.486-2.83.992-4.246 1.486-1.19.416-2.384.816-3.975.81-1.594-.1-3.226-.688-4.627-2.124-1.133-1.162-1.663-2.524-2.15-3.974-.345-1.028-.735-2.042-1.089-3.067-.355-1.03-.682-2.07-1.038-3.1-.772-2.236-1.603-4.454-2.315-6.71-.49-1.554-1.16-3.05-1.493-4.66-.082-.394-.33-.777-.479-1.179-.609-1.65-1.16-3.319-1.718-4.987-.833-2.486-1.71-4.958-2.56-7.439-1.108-3.233-2.199-6.472-3.313-9.703-.648-1.879-1.346-3.74-1.979-5.624-.167-.496-.345-.988-.51-1.485-.145-.438 0-.727.443-.874 1.408-.469 2.818-.933 4.22-1.418 1.448-.502 2.884-1.038 4.332-1.537 1.044-.36 2.107-.668 3.15-1.03 1.057-.367 2.098-.78 3.152-1.158.917-.328 1.84-.636 2.762-.947 1.082-.366 2.168-.722 3.25-1.088 1.098-.373 2.194-.754 3.291-1.13.994-.34 1.99-.673 2.983-1.019.656-.229.725-.21.943.417 1.198 3.445 2.4 6.888 3.584 10.338.632 1.841 1.21 3.702 1.853 5.54.587 1.675 1.147 3.362 1.746 5.033.481 1.34.89 2.703 1.387 4.036.141.378.012.61-.364.737-1.825.611-3.661 1.195-5.466 1.862-.495.183-1.054.27-1.474.664-.464.434-.638 1.034-.405 1.573.238.552.769.835 1.428.765.794-.084 1.503-.449 2.25-.688.604-.194 1.194-.433 1.794-.642.617-.216 1.246-.4 1.853-.64.283-.112.567-.193.858-.267.436-.11.7.014.855.474.89 2.654 1.797 5.303 2.71 7.95.655 1.894 1.34 3.78 1.992 5.676.505 1.467.971 2.948 1.474 4.416.347 1.01.737 2.004 1.09 3.012.315.902.605 1.812.908 2.718.315.944.627 1.889.951 2.83.13.374.036.57-.352.725m-47.817-49.73c-.317.098-.543-.008-.655-.346-.461-1.386-.92-2.773-1.399-4.153-1.032-2.98-2.084-5.952-3.112-8.932-.466-1.348-.947-2.693-1.323-4.066-.228-.835-.152-1.714.013-2.577.233-1.222.767-2.324 1.494-3.292.662-.882 1.576-1.523 2.654-1.888 1.313-.446 2.654-.836 3.921-1.39 1.036-.451 56.418-19.38 69.064-23.792v.002l4.878-1.714c1.022-.36 2.028-.779 3.07-1.065 1.397-.383 2.808-.397 4.217.058 1.447.467 2.583 1.334 3.512 2.512.605.768.917 1.677 1.236 2.578.557 1.572 1.082 3.155 1.616 4.735.353 1.046.688 2.097 1.047 3.14.346 1.007.69 2.015 1.08 3.005.18.453.278.926.48 1.377.46 1.018.958 2.024 1.251 3.112.125.466.01.816-.456.975-1.418.486-2.85.921-4.301 1.306-1.206.32-2.348.876-3.548 1.227-1.375.402-2.71.916-4.063 1.375-1.437.488-2.879.967-4.31 1.473-1.691.598-3.392 1.168-5.087 1.755-2.824.977-5.647 1.955-8.469 2.936-2.053.714-4.102 1.44-6.158 2.148-1.47.506-2.951.98-4.421 1.486-1.84.634-3.67 1.293-5.51 1.926-1.877.645-3.764 1.261-5.641 1.907-1.419.487-2.825 1.01-4.243 1.5-2.147.744-4.3 1.473-6.449 2.211-1.794.616-3.585 1.242-5.381 1.855-1.578.538-3.173 1.029-4.737 1.605-2.249.827-4.55 1.502-6.781 2.382-1.042.411-2.137.684-3.2 1.047-1.008.344-2.002.733-3.009 1.085-1.005.353-2.018.684-3.027 1.027a886.23 886.23 0 0 0-3.142 1.072c-.372.128-.736.28-1.111.397m70.205 7.954c-2.462.851-4.913 1.735-7.388 2.551-1.852.61-3.68 1.296-5.524 1.93-3.055 1.05-6.117 2.082-9.173 3.132-1.722.592-3.437 1.206-5.155 1.808-.603.211-1.21.408-1.81.628-.472.174-.753.02-.91-.447-.762-2.28-1.52-4.56-2.298-6.835-.644-1.878-1.32-3.746-1.969-5.622-.49-1.416-.953-2.841-1.442-4.257-.908-2.626-1.826-5.247-2.737-7.871-.068-.194-.113-.395-.14-.494-.008-.385.11-.557.387-.65a632.34 632.34 0 0 0 5.446-1.847c1.775-.614 3.542-1.253 5.318-1.865 1.49-.514 2.993-.997 4.485-1.509 1.402-.481 2.794-.992 4.196-1.475 1.488-.512 3.004-.954 4.47-1.523 1.399-.545 2.848-.934 4.245-1.48A10.01 10.01 0 0 1 103.7 58c.294-.07.49.065.592.375.456 1.391.883 2.795 1.404 4.162.648 1.702 1.16 3.448 1.78 5.159.525 1.448 1.018 2.907 1.519 4.364.629 1.83 1.251 3.663 1.875 5.495.66 1.937 1.317 3.875 1.98 5.81.154.451.075.676-.443.854m23.183-36.98c-.05.199-.105.406-.206.582-.806 1.402-1.374 2.914-1.991 4.399-.548 1.318-1.068 2.646-1.506 4.015a46.88 46.88 0 0 0-1.874 8.681c-.334 2.766-.48 5.55-.303 8.338.093 1.464.112 2.933.36 4.385.106.615-.35.828-.8.989-1.038.37-2.064.815-3.134 1.038-1.646.343-3.205.927-4.785 1.462-1.066.36-2.123.748-3.188 1.113-.656.225-1.313.447-1.98.636-.397.113-.621-.026-.77-.481-.628-1.924-1.324-3.825-1.982-5.738-.634-1.846-1.247-3.7-1.88-5.545-.751-2.186-1.548-4.356-2.259-6.554-.386-1.192-.838-2.36-1.152-3.584-.245-.95-.57-1.927-1.055-2.815a1.22 1.22 0 0 1-.132-.712c-.1-.545.307-.71.7-.848 1.274-.446 2.557-.869 3.834-1.308 2.63-.904 5.255-1.816 7.884-2.718 1.598-.548 3.204-1.071 4.8-1.626 1.397-.486 2.79-.983 4.174-1.506 1.784-.674 3.54-1.417 5.36-2a28.549 28.549 0 0 1 1.613-.475c.325-.083.326.056.272.271m93.282 19.496c-.319-3.903-1.13-7.71-2.36-11.435-.872-2.638-1.985-5.166-3.243-7.628-1.048-2.05-2.31-3.982-3.666-5.843a51.673 51.673 0 0 0-4.621-5.462c-1.387-1.436-2.82-2.818-4.367-4.06-2.16-1.737-4.443-3.314-6.873-4.672a53.494 53.494 0 0 0-6.55-3.092 41.734 41.734 0 0 0-4.156-1.368c-.936-.259-1.87-.545-2.817-.737-1.044-.211-2.09-.428-3.146-.598-2.25-.36-4.513-.51-6.78-.655-2.566-.164-5.102.274-7.65.448-.945.065-1.916.226-2.819.5-.917.277-1.866.343-2.782.633-.775.246-1.592.424-2.37.673-1.349.43-2.69.884-4 1.444-1.222.522-2.451 1.027-3.634 1.63-2.522 1.29-4.949 2.737-7.22 4.44a53.81 53.81 0 0 0-4.753 4.017 40.69 40.69 0 0 0-2.351 2.416c-1.106 1.239-2.238 2.453-3.174 3.833a28.707 28.707 0 0 1-1.09 1.5c-.354.456-.768.434-.951-.048-.2-.523-.333-1.073-.541-1.593-.404-1.012-.629-2.078-.962-3.111-.332-1.032-.65-2.07-1.033-3.083-.346-.912-.597-1.853-.92-2.771-.522-1.48-1.088-2.947-1.582-4.437-.494-1.493-1.086-2.905-2.11-4.144-1.946-2.353-4.474-3.439-7.443-3.554-1.433-.056-2.817.382-4.17.83-1.612.532-3.224 1.07-4.803 1.69-.282.036-1.786.572-2.051.672-.945.355-67.978 23.607-68.948 23.88-1.078.303-2.107.742-3.174 1.073-.399.123-.82.257-1.198.463-1 .545-1.956 1.14-2.783 1.95a9.436 9.436 0 0 0-2.734 5.163c-.308 1.7-.207 3.406.392 5.053.427 1.177.798 2.373 1.226 3.55.691 1.9 1.296 3.83 1.951 5.742.746 2.18 1.514 4.352 2.259 6.532.2.588.064.843-.507 1.04-.955.33-1.913.652-2.871.972-.59.197-1.114.922-1.041 1.456.096.71.598 1.182 1.35 1.179.386-.002.78-.07 1.157-.211.79-.296 1.593-.564 2.387-.853.446-.162.716-.114.875.424.285.966.66 1.907.99 2.86.387 1.113.767 2.227 1.151 3.34.347 1.007.69 2.014 1.043 3.019.483 1.375.984 2.745 1.458 4.124.499 1.451.97 2.912 1.463 4.365.775 2.285 1.558 4.567 2.337 6.85.338.99.667 1.985 1.012 2.972.364 1.04.756 2.07 1.111 3.112.356 1.042.661 2.102 1.024 3.142.488 1.395 1.028 2.771 1.51 4.168.517 1.504.976 3.028 1.49 4.532a734.201 734.201 0 0 0 2.388 6.845c.734 2.08 2.02 3.732 3.86 4.96 1.174.782 2.456 1.24 3.834 1.497a8.142 8.142 0 0 0 3.128-.002c1.145-.228 2.236-.617 3.332-1.002 1.871-.658 3.756-1.276 5.631-1.92 1.576-.543 3.146-1.105 4.722-1.649 2.534-.874 5.073-1.738 7.607-2.612a807.93 807.93 0 0 0 5.883-2.044c1.883-.665 3.79-1.257 5.658-1.971.992-.38 2.036-.624 3.027-1.008.543-.21 1.102-.354 1.647-.547 1.021-.363 2.038-.738 3.06-1.096 1.128-.394 2.264-.764 3.39-1.163 1.25-.444 2.48-.959 3.747-1.347 1.129-.346 2.235-.75 3.35-1.128 1.421-.482 2.839-.974 4.257-1.46 1.508-.518 3.017-1.032 4.523-1.554 1.324-.458 2.642-.935 3.968-1.388 1.432-.489 2.879-.934 4.303-1.444 1.18-.423 2.352-.86 3.55-1.227a24.5 24.5 0 0 0 1.59-.554c.94-.36 1.89-.68 2.805-1.112.704-.332 1.475-.525 2.214-.784.541-.19 1-.219 1.499.228.76.683 1.609 1.267 2.435 1.873 1.702 1.247 3.47 2.392 5.333 3.387.843.45 1.68.916 2.545 1.32a47.856 47.856 0 0 0 4.74 1.922c.959.327 1.906.704 2.885.943 1.509.368 3.018.729 4.55 1.013 2.072.385 4.149.722 6.25.778 3.06.082 6.115.116 9.173-.346 2.008-.303 4.001-.646 5.97-1.114a35.37 35.37 0 0 0 5.09-1.618c1.13-.457 2.264-.909 3.373-1.413 1.98-.9 3.89-1.931 5.719-3.114 1.806-1.168 3.565-2.398 5.207-3.786 1.733-1.464 3.405-2.995 4.926-4.684 1.327-1.475 2.605-2.99 3.735-4.622 1.041-1.504 2.054-3.025 2.95-4.626.705-1.257 1.377-2.528 1.952-3.843.54-1.233 1.074-2.47 1.529-3.745a49.147 49.147 0 0 0 1.42-4.672 47.875 47.875 0 0 0 1.262-7.49c.255-3.005.286-6.012.04-9.013"/>
        <path fill="#FEFEFE" d="M66.246 100.285c.913-.008 1.228.231 1.453 1.011.156.539-.087 1.089-.647 1.419a3.757 3.757 0 0 1-.661.303c-1.787.626-3.577 1.243-5.365 1.865-.876.305-1.628.001-1.957-.796-.233-.565.091-1.368.664-1.597a67.211 67.211 0 0 1 5.019-1.781c.533-.166 1.025-.473 1.494-.424M123.551 108.125c.406.021.784.258 1.053.767.34.643.613 1.284.453 2.02-.144.663-.633 1.071-1.238 1.085-.598.013-1.272-.478-1.42-1.071a6.67 6.67 0 0 0-.3-.9c-.387-.958.283-1.919 1.452-1.9"/>
        <g transform="translate(0 33.924)">
            <mask id="b" fill="#fff">
                <use xlink:href="#a"/>
            </mask>
            <path fill="#CF122D" d="M8.215 16.74c-.678.168-.806-.5-1.064-.894-.695-1.068-1.35-2.16-1.865-3.338-.193-.442-.592-.802-1.133-1.005-.67-.251-1.206-.788-1.88-1.075-.562-.24-1.08-.56-1.582-.92-.87-.621-.947-1.603-.067-2.209.714-.49 1.504-.873 2.269-1.287.537-.291 1.141-.485 1.62-.848.572-.433.897-1.105 1.25-1.727.55-.973.979-2.016 1.627-2.933.593-.84 1.672-.513 2.09.202.647 1.109 1.376 2.183 1.843 3.386.332.852 1.058 1.222 1.78 1.576 1.078.528 2.156 1.059 3.13 1.758.833.597.723 1.734-.22 2.19-1.253.604-2.433 1.34-3.672 1.965-.648.326-.85.98-1.184 1.552-.45.77-.721 1.646-1.345 2.31-.177.19-.085.43-.206.628-.293.48-.659.676-1.391.67" mask="url(#b)"/>
        </g>
        <path fill="#CF122D" d="M54.014 51.419c.573 1.096.59 2.136-.137 3.161-1.196 1.691-3.515 1.195-4.255-.278-.605-1.205-3.268-9.571-3.37-10.133-.136-.739-.546-1.399-.565-2.191-.044-1.856 1.552-2.909 3.1-2.344.843.308 1.35.944 1.631 1.875.273.904 3.377 9.492 3.596 9.91M114.629 31.37c.138.333.23.663.145.98-.253.944-.58 1.776-1.627 2.242-1.311.583-2.883-.222-3.3-1.371-.443-1.215-3.44-10.478-3.664-11.157-.542-1.647.134-2.717 1.48-3.36.322-.154.734-.144 1.053-.02.94.364 1.756.81 2.04 1.97.18.731 3.53 9.886 3.873 10.716M78.099 35.987c-.155-.317-.582-1.642-.7-2.046-.28-.949-.8-1.835-.714-2.892.07-.838.725-1.956 1.521-2.196.95-.287 2.621.25 2.933 1.406.294 1.092 3.455 9.521 3.982 11.109.3.904.307 1.773-.354 2.548-.56.659-1.217 1.178-2.13 1.007-.95-.178-1.782-.59-2.13-1.612-.543-1.592-2.1-6.686-2.408-7.324M151.877 144.073c-.12-1.722-1.237-2.96-3.099-2.952-1.638.008-2.844 1.234-2.902 2.908-.064 1.837 1.479 3.185 2.91 3.074 2.047-.159 2.84-1.03 3.091-3.03M149 138.428c3.012-.206 5.613 2.729 5.61 5.723-.003 2.749-2.573 5.925-6.142 5.644-2.753-.217-5.462-2.473-5.34-5.777.108-2.975 2.315-5.734 5.872-5.59M182.102 1.263c.081.455-.081.75-.385 1.034-.617.576-1.193 1.196-1.791 1.792-.151.15-.167.23-.03.448.478.76 1.188 1.296 1.775 1.948.42.466.603 1.172.365 1.644-.248.492-.78.73-1.435.665-.436-.044-.626-.394-.891-.658-.506-.504-1.02-1-1.535-1.494-.314-.303-.571-.269-.875.07-.553.613-1.157 1.18-1.737 1.769-.47.478-1.302.456-1.722-.052-.627-.757-.64-1.11.017-1.838.502-.557 1.044-1.078 1.579-1.606.352-.347.363-.623.04-1.05-.576-.764-1.447-1.246-1.903-2.12-.281-.54-.1-1.283.452-1.517.874-.372 1.281-.272 1.942.437.423.454.86.894 1.304 1.328.459.448.644.433 1.108-.028.545-.542 1.102-1.071 1.638-1.621.401-.411.864-.527 1.377-.297.497.222.862.564.707 1.146"/>
        <g transform="translate(245.783 56.74)">
            <mask id="d" fill="#fff">
                <use xlink:href="#c"/>
            </mask>
            <path fill="#CF122D" d="M6.972 3.622c0 1.966-1.336 3.23-3.29 3.322C1.841 7.03.158 5.024.184 3.596.212 2.097 1.695.128 3.687.118c1.56-.007 3.577 1.694 3.285 3.504" mask="url(#d)"/>
        </g>
        <path fill="#CF122D" d="M30.416 125.897c-.998-.001-1.981-.834-1.942-1.698.043-.978.771-2.001 1.787-1.981 1.027.02 1.913.856 1.906 1.834-.007.959-.85 1.847-1.751 1.845M183.71 68.106c.199.475 1.95 5.166-2.462 7.492-3.934.718-5.012-.895-5.49-1.357-.592-.575-.849-1.347-1.182-2.07a85.585 85.585 0 0 1-1.427-3.26c-.518-1.257-1.115-2.48-1.599-3.753-.196-.516-.435-1.026-.66-1.536-.535-1.22-1.074-2.439-1.597-3.665-.33-.776-.718-1.547-1.07-2.32-.308-.674-.573-1.376-.875-2.06-.404-.914-.78-1.841-1.179-2.759-.57-1.313-1.194-2.604-1.713-3.937-.577-1.484-.2-2.328.986-3.282.526-.424 1.983-.263 2.543.1.905.587 1.347 1.506 1.904 2.358.868 1.327 1.78 2.626 2.668 3.941.816 1.208 1.624 2.42 2.433 3.632.841 1.26 7.738 11.316 8.72 12.476"/>
        <path fill="#FEFEFE" d="M179.257 69.447c-1.314-.069-1.884.892-1.938 1.85-.06 1.05.863 2.035 2 2.006.998-.026 1.808-.867 1.85-1.803.037-1.304-.668-1.984-1.912-2.053m-1.213-11.922c.392-1.289.733-2.592 1.124-3.88.179-.592.35-1.191.499-1.784.71-2.822 1.585-5.598 2.318-8.414.583-2.235 1.289-4.438 1.9-6.667.298-1.086.614-2.167.912-3.252.346-1.26 1.489-2.044 2.857-1.89 1.046.117 1.967 1.214 1.986 2.397.012.754-.134 1.494-.232 2.24-.365 2.774-.81 5.538-1.188 8.311-.322 2.36-.707 4.715-1.056 7.073-.22 1.486-.446 2.973-.654 4.46-.2 1.43-.34 2.873-.633 4.293-.22 1.066-.348 2.155-.478 3.232-.303 2.521-.776 5.016-1.054 7.54-.201 1.817-1.003 3.28-2.651 4.208-1.201.675-4.089.844-5.403-.51-1.54-1.492-2.204-3.212-1.58-5.347.593-2.032 1.107-4.088 1.73-6.11.258-.843.364-1.721.694-2.553.15-.377.699-2.657.909-3.347"/>
    </g>
</svg>
