<svg xmlns="http://www.w3.org/2000/svg" width="20" height="15" viewBox="0 0 20 15">
    <path  fill-rule="nonzero" d="M15.467 1.3C17.966 1.3 20 3.38 20 5.93c0 2.555-2.034 4.647-4.533 4.647-1.168 0-2.188-.364-3.074-.944L11.382 14.5H9.049l1.396-6.71c-.658-.847-1.201-1.8-1.644-2.745v1.017c0 2.482-1.977 4.52-4.405 4.52S-.008 8.544 0 6.062V0h2.279v6.062c0 1.194.953 2.169 2.121 2.169 1.169 0 2.122-.975 2.122-2.17V0H8.8c.451 1.58 1.222 3.457 2.241 5.02.667-2.313 2.308-3.72 4.425-3.72zm0 6.94c1.239 0 2.25-1.034 2.254-2.301 0-1.27-1.01-2.304-2.254-2.304-1.657 0-2.196 1.635-2.366 2.609l-.008.034-.19.915c.783.648 1.644 1.046 2.564 1.046z"/>
</svg>
